# xmcd CD database file
#
# Track frame offsets:
#	150
#	22447
#	45285
#	72154
#	88652
#	114452
#	136866
#	160920
#	176338
#	205468
#
# Disc length: 3115 seconds
#
# Revision: 0
# Processed by: cddbd v1.5.2PL0 Copyright (c) Steve Scherf et al.
# Submitted via: CDex 1.70beta2
#
DISCID=850c290a
DTITLE=Triband - Trip
DYEAR=2007
DGENRE=Jazz
TTITLE0=Chameleon Moon
TTITLE1=Something to hold
TTITLE2=Got to
TTITLE3=Trip
TTITLE4=Disgusting
TTITLE5=Pumpin'
TTITLE6=Somebody else
TTITLE7=Before we fall
TTITLE8=High
TTITLE9=Love can't be denied
EXTD=YEAR: 2007
EXTT0=
EXTT1=
EXTT2=
EXTT3=
EXTT4=
EXTT5=
EXTT6=
EXTT7=
EXTT8=
EXTT9=
PLAYORDER=
